:SAMPLES-PER-SECOND 30
:FULLY-SPECIFIED
:DEGREES
178
root  34.77065019 36.43364193 -14.71652234 13.09420776 18.50137901 6.121593952
lowerback  -8.475859642 4.288489819 4.473407745
upperback  -4.58631897 5.051239967 -5.419050217
thorax  0.8514620066 2.257888317 -7.714350224
lowerneck  -16.08769989 -2.816610098 0.8485509753
upperneck  12.44970036 -5.304059982 6.749259949
head  6.616119862 -2.029930115 1.474609971
lclavicle  0 -4.497500157e-015 -2.743230041e-014
lhumerus  -43.43730164 27.86140251 66.20680237
lradius  -0.4513644576 -6.507048965e-006 25.49470139
lwrist  4.824992743e-007 -3.790274832e-007 -34.77230072
lhand  -4.448771503e-031 -37.46450043 -10.41259956
lfingers  90 7.125020027 -90
lthumb  95.0220124 -25.23324398 101.647467
rclavicle  0 -4.497500157e-015 -2.743230041e-014
rhumerus  74.91860199 -5.736479282 -58.5503006
rradius  -5.16745672e-007 2.214343908e-008 35.57180023
rwrist  1.129822067e-006 0.001802438172 -152.6710052
rhand  -1.77191305e-031 4.852340221 -7.679130077
rfingers  -90 -7.125020027 -90
rthumb  -85.04263285 -8.43557327 -59.40508016
rfemur  -15.22247887 8.013543129 15.24470997
rtibia  -4.581276894 2.594640732 26.16877747
rfoot  -4.018788338 -11.87541294 -47.40517426
rtoes  3.846458459 19.64151443 -101.3111762
lfemur  -13.5631361 -25.04071999 -18.49485207
ltibia  3.69613266 3.327104092 14.25621414
lfoot  0.5631158948 -31.24279976 25.54318428
ltoes  -8.673947642 -18.09097724 -116.1640542
179
root  34.76971904 36.43406545 -14.71564526 13.09902382 18.47848129 6.115786552
lowerback  -8.492590904 4.284591198 4.474241734
upperback  -4.584420204 5.049950123 -5.429100037
thorax  0.8572239876 2.256061316 -7.726709843
lowerneck  -16.06340027 -2.796230078 0.9113550186
upperneck  12.46959972 -5.287000179 6.71626997
head  6.61537981 -2.021709919 1.455890059
lclavicle  0 -4.497500157e-015 -2.743230041e-014
lhumerus  -43.52939987 27.85740089 66.12270355
lradius  -0.4501455128 -6.507048965e-006 25.50189972
lwrist  4.824992743e-007 -3.790274832e-007 -34.84769821
lhand  -4.448069638e-031 -37.45270157 -10.50990009
lfingers  90 7.125020027 -90
lthumb  95.03823655 -25.32895355 101.644127
rclavicle  0 -4.497500157e-015 -2.743230041e-014
rhumerus  74.81629944 -5.78786993 -58.59009933
rradius  -5.16745672e-007 2.214343908e-008 35.62590027
rwrist  1.129822067e-006 0.001802438172 -152.8860016
rhand  -1.77188402e-031 4.84126997 -7.754370213
rfingers  -90 -7.125020027 -90
rthumb  -85.08383498 -8.370105552 -59.42144982
rfemur  -15.22175789 7.996416092 15.24458981
rtibia  -4.569013596 2.565895081 26.15030861
rfoot  -4.017812252 -11.95096779 -47.38677216
rtoes  3.849770177 19.64089027 -101.3210288
lfemur  -13.54111767 -24.98085594 -18.49712563
ltibia  3.710343361 3.350206852 14.21392632
lfoot  0.571389854 -31.27233315 25.55096626
ltoes  -8.677241625 -18.0894386 -116.1746624
180
root  34.77000139 36.43432377 -14.71442125 13.09234905 18.45014191 6.098011017
lowerback  -8.504494667 4.282986164 4.466425896
upperback  -4.583071709 5.03869009 -5.428209782
thorax  0.8577979803 2.254436255 -7.721789837
lowerneck  -16.0618 -2.776720047 0.9122899771
upperneck  12.51939964 -5.267920017 6.728519917
head  6.630990028 -2.010339975 1.461539984
lclavicle  0 -4.497500157e-015 -2.743230041e-014
lhumerus  -43.61109924 27.9015007 66.04299927
lradius  -0.4489162862 -6.507048965e-006 25.47799683
lwrist  4.824992743e-007 -3.790274832e-007 -34.9375
lhand  -4.446868818e-031 -37.43249893 -10.63160038
lfingers  90 7.125020027 -90
lthumb  95.05601971 -25.44887915 101.6342937
rclavicle  0 -4.497500157e-015 -2.743230041e-014
rhumerus  74.71230316 -5.787379742 -58.39920044
rradius  -5.16745672e-007 2.214343908e-008 35.70970154
rwrist  1.129822067e-006 0.001802438172 -153.0690002
rhand  -1.771580338e-031 4.723889828 -7.614739895
rfingers  -90 -7.125020027 -90
rthumb  -85.03920942 -8.482337974 -59.52528987
rfemur  -15.20802402 7.995957375 15.24775696
rtibia  -4.551707268 2.548537254 26.11673737
rfoot  -4.015934944 -12.01049519 -47.39087677
rtoes  3.833923246 19.64387185 -101.2738861
lfemur  -13.55965614 -24.9993515 -18.48379135
ltibia  3.695919037 3.32356286 14.2635994
lfoot  0.5600835681 -31.23826408 25.54749107
ltoes  -8.682020026 -18.08720528 -116.1900526
181
root  34.77175855 36.43574151 -14.71231716 13.11176395 18.39186287 6.083798885
lowerback  -8.484294891 4.282298565 4.46091938
upperback  -4.582626343 5.038790226 -5.415550232
thorax  0.8469769955 2.252805233 -7.706399918
lowerneck  -16.03179932 -2.768409967 0.8808270097
upperneck  12.52169991 -5.251930237 6.746739864
head  6.627409935 -2.003230095 1.474490047
lclavicle  0 -4.497500157e-015 -2.743230041e-014
lhumerus  -43.70632935 27.99546432 65.95172882
lradius  -0.447676748 -6.507048965e-006 25.45299911
lwrist  4.824992743e-007 -3.790274832e-007 -35.08200073
lhand  -4.445722858e-031 -37.41320038 -10.73250008
lfingers  90 7.125020027 -90
lthumb  95.06946723 -25.54847534 101.6232695
rclavicle  0 -4.497500157e-015 -2.743230041e-014
rhumerus  74.6242981 -5.752271175 -58.22539902
rradius  -5.16745672e-007 2.214343908e-008 35.80979919
rwrist  1.129822067e-006 0.001802438172 -153.1719971
rhand  -1.771080799e-031 4.52410984 -7.264560223
rfingers  -90 -7.125020027 -90
rthumb  -84.90647594 -8.771361956 -59.69309881
rfemur  -15.22052097 8.034158707 15.23263359
rtibia  -4.532174587 2.534483194 26.08238602
rfoot  -4.011741161 -12.05292702 -47.41324615
rtoes  3.847099621 19.64139363 -101.3130837
lfemur  -13.62085056 -24.95299149 -18.46873856
ltibia  3.677524805 3.314319849 14.32477283
lfoot  0.5411968231 -31.23628426 25.50063324
ltoes  -8.681632681 -18.08738637 -116.188805
